# xmcd
#
# Track frame offsets:
#	150
#	12112
#	23593
#	44425
#	62378
#	84353
#	99425
#	125106
#	156056
#	177229
#	195460
#	213317
#	227865
#	241904
#	263584
#
# Disc length: 3837 seconds
#
# Revision: 1
# Processed by: cddbd v1.5.1PL2 Copyright (c) Steve Scherf et al.
# Submitted via: audiograbber 1.83.01
#
DISCID=b50efb0f
DTITLE=Dixie Chicks - Chartbuster Karaoke Dixie Chicks Volume 2
DYEAR=1900
DGENRE=Karaoke - Country
TTITLE0=Some Days You Gotta Dance (E)
TTITLE1=White Trash Wedding (C)
TTITLE2=I Believe In You (C)
TTITLE3=Long Time Gone (D/E/D)
TTITLE4=Travlin' Soldier (A)
TTITLE5=Hole In My Head (D)
TTITLE6=Cold Day In July (G)
TTITLE7=Top Of The World (E)
TTITLE8=Truth No. 2 (C)
TTITLE9=Landslide (D)
TTITLE10=Tortured, Tangled Hearts (E)
TTITLE11=If I Fall You're Going Down With Me (Eb)
TTITLE12=Don't Waste Your Heart (E)
TTITLE13=Godspeed (Sweet Dreams) (A)
TTITLE14=More Love (B)
EXTD=
EXTT0=
EXTT1=
EXTT2=
EXTT3=
EXTT4=
EXTT5=
EXTT6=
EXTT7=
EXTT8=
EXTT9=
EXTT10=
EXTT11=
EXTT12=
EXTT13=
EXTT14=
PLAYORDER=
